<svg width="51" height="30" viewBox="0 0 51 30" fill="none" xmlns="http://www.w3.org/2000/svg">
<path d="M35.9648 14.6465V21.9873H40.4356V17.8581H44.9325C47.2856 17.8581 49.2857 16.521 50.0569 14.6465H35.9648Z" fill="#006848"/>
<path d="M48.6851 9.29775C47.8093 8.49813 46.6589 8 45.3778 8H35.7695C35.7826 8.38015 35.848 8.73408 35.9264 9.08802C35.9525 9.16667 35.9656 9.24532 35.9918 9.32397C36.0048 9.35019 36.0048 9.38951 36.0179 9.41573C36.8153 11.9457 39.1814 13.794 41.9659 13.794H50.2146C50.2669 13.5056 50.293 13.2172 50.293 12.9288C50.293 11.4869 49.6655 10.2022 48.6851 9.29775Z" fill="url(#paint0_linear_9521_88017)"/>
<path d="M28.0565 9.48127L24.9322 16.2715H24.6185V8H20.1738V22H23.9387C24.9322 22 25.8342 21.4232 26.2394 20.5187L29.3637 13.7285H29.6775V22H34.1221V8H30.3573C29.3637 8 28.4748 8.57678 28.0565 9.48127Z" fill="#006848"/>
<path d="M7.3761 9.83521L9.23239 16.2715H9.54613L11.3893 9.83521C11.7031 8.74719 12.6966 8 13.8339 8H18.2654V22H13.8208V13.7285H13.5071L10.971 22H7.79442L5.25837 13.7285H4.94463V22H0.5V8H4.93156C6.06886 8 7.06236 8.74719 7.3761 9.83521Z" fill="#006848"/>
<defs>
<linearGradient id="paint0_linear_9521_88017" x1="35.7636" y1="10.9008" x2="50.2885" y2="10.9008" gradientUnits="userSpaceOnUse">
<stop offset="0.00537635" stop-color="#00AFFF"/>
<stop offset="1" stop-color="#1F5BD7"/>
</linearGradient>
</defs>
</svg>
